<?xml version="1.0" encoding="UTF-8"?>
<!DOCTYPE svg PUBLIC "-//W3C//DTD SVG 1.1//EN" "http://www.w3.org/Graphics/SVG/1.1/DTD/svg11.dtd">
<!-- Creator: CorelDRAW X6 -->
<svg xmlns="http://www.w3.org/2000/svg" xml:space="preserve" width="2.56944in" height="2.66666in" version="1.1" style="shape-rendering:geometricPrecision; text-rendering:geometricPrecision; image-rendering:optimizeQuality; fill-rule:evenodd; clip-rule:evenodd"
viewBox="0 0 2569 2667"
 xmlns:xlink="http://www.w3.org/1999/xlink">
 <defs>
  <style type="text/css">
   <![CDATA[
    .fil0 {fill:#373435;fill-rule:nonzero}
   ]]>
  </style>
 </defs>
 <g id="Layer_x0020_1">
  <metadata id="CorelCorpID_0Corel-Layer"/>
  <path class="fil0" d="M1276 1146c-266,29 -292,67 -334,356 -5,30 -9,63 -15,99l-178 1065c-856,-732 -827,-1965 -644,-2012 -36,281 -65,473 -54,669l176 -26c-33,-831 61,-1020 152,-1045 -58,325 -121,778 -123,1042l179 -25c60,-1039 147,-1251 267,-1273l1 0c-102,424 -230,1104 -236,1270l169 -19c90,-1055 248,-1152 335,-1151 -249,671 -311,1231 -311,1231 -125,1126 146,903 245,265 5,-33 7,-65 9,-95 13,-375 -104,-401 46,-421 159,-20 316,71 316,71z"/>
  <path class="fil0" d="M1295 1146c266,29 292,67 334,356 4,30 9,63 15,99l178 1065c856,-732 827,-1965 644,-2012 36,281 65,473 54,669l-176 -26c33,-831 -61,-1020 -152,-1045 58,325 121,778 123,1042l-179 -25c-60,-1039 -147,-1251 -267,-1273l-1 0c102,424 230,1104 236,1270l-169 -19c-90,-1055 -248,-1152 -335,-1151 249,671 311,1231 311,1231 125,1126 -146,903 -245,265 -5,-33 -8,-65 -9,-95 -13,-375 104,-401 -46,-421 -159,-20 -316,71 -316,71z"/>
 </g>
</svg>
